<svg xmlns="http://www.w3.org/2000/svg" version="1.1" xmlns:xlink="http://www.w3.org/1999/xlink" xmlns:svgjs="http://svgjs.com/svgjs" width="1440" height="560" preserveAspectRatio="none" viewBox="0 0 1440 560"><g mask="url(&quot;#SvgjsMask1138&quot;)" fill="none"><rect width="1440" height="560" x="0" y="0" fill="url(#SvgjsLinearGradient1139)"></rect><path d="M1440 0L971.15 0L1440 256.83z" fill="rgba(255, 255, 255, .1)"></path><path d="M971.15 0L1440 256.83L1440 287.47999999999996L703.03 0z" fill="rgba(255, 255, 255, .075)"></path><path d="M703.03 0L1440 287.47999999999996L1440 424.27L546.91 0z" fill="rgba(255, 255, 255, .05)"></path><path d="M546.91 0L1440 424.27L1440 478.81L240.77999999999997 0z" fill="rgba(255, 255, 255, .025)"></path><path d="M0 560L234.21 560L0 393.64z" fill="rgba(0, 0, 0, .1)"></path><path d="M0 393.64L234.21 560L385.47 560L0 314.36z" fill="rgba(0, 0, 0, .075)"></path><path d="M0 314.36L385.47 560L957.37 560L0 299.61z" fill="rgba(0, 0, 0, .05)"></path><path d="M0 299.61L957.37 560L1144.69 560L0 273.36z" fill="rgba(0, 0, 0, .025)"></path></g><defs><mask id="SvgjsMask1138"><rect width="1440" height="560" fill="#ffffff"></rect></mask><linearGradient x1="15.28%" y1="-39.29%" x2="84.72%" y2="139.29%" gradientUnits="userSpaceOnUse" id="SvgjsLinearGradient1139"><stop stop-color="#0e2a47" offset="0"></stop><stop stop-color="rgba(21, 30, 42, 1)" offset="1"></stop></linearGradient></defs></svg>