<svg xmlns="http://www.w3.org/2000/svg" version="1.1" xmlns:xlink="http://www.w3.org/1999/xlink" xmlns:svgjs="http://svgjs.com/svgjs" width="1440" height="560" preserveAspectRatio="none" viewBox="0 0 1440 560"><g mask="url(&quot;#SvgjsMask1047&quot;)" fill="none"><rect width="1440" height="560" x="0" y="0" fill="rgba(5, 26, 40, 1)"></rect><path d="M0,505.039C95.95,524.204,194.15,482.937,278.523,433.391C365.193,382.497,437.65,310.231,483.799,220.944C531.41,128.829,574.14,20.812,542.872,-78.053C512.28,-174.781,410.106,-226.471,324.888,-281.517C258.348,-324.498,180.715,-334.586,105.814,-360.37C26.453,-387.689,-46.358,-454.89,-128.487,-437.586C-211.244,-420.15,-255.197,-332.884,-313.849,-271.952C-376.088,-207.293,-455.457,-154.885,-482.868,-69.426C-512.413,22.686,-523.327,133.953,-469.912,214.602C-416.993,294.502,-296.675,284.398,-215.153,334.784C-135.749,383.861,-91.538,486.755,0,505.039" fill="#03111a"></path><path d="M1440 1249.9589999999998C1573.68 1262.833 1714.804 1235.632 1823.608 1156.906 1930.095 1079.857 2000.884 956.256 2024.592 826.9739999999999 2045.988 710.297 1964.024 604.498 1946.422 487.188 1928.974 370.905 1989.777 238.45 1921.878 142.45 1853.59 45.900999999999954 1721.132 16.297000000000025 1603.671 2.5879999999999654 1497.258-9.831999999999994 1395.923 30.894000000000005 1295.945 69.394 1203.391 105.03500000000003 1115.202 147.673 1044.9940000000001 217.726 970.896 291.661 909.79 378.576 884.326 480.106 857.167 588.393 859.413 702.862 896.949 808.0029999999999 936.5260000000001 918.861 1009.8109999999999 1013.025 1101.108 1087.326 1200.299 1168.0520000000001 1312.7 1237.699 1440 1249.9589999999998" fill="#072336"></path></g><defs><mask id="SvgjsMask1047"><rect width="1440" height="560" fill="#ffffff"></rect></mask></defs></svg>