<svg version="1.1"
      xmlns="http://www.w3.org/2000/svg"
      xmlns:xlink="http://www.w3.org/1999/xlink"  id="snapshot-72189" width="105" height="100" viewBox="0 0 105 100" opacity="0.1"><desc>This image was made on Patterninja.com</desc><defs>
<!-- image 61356 -->
<g id="transformed-61356" data-image="61356" transform="translate(-33.574575951071274, -12.086847342385656) rotate(37, 33.574575951071274, 12.086847342385656)"><g><svg version="1.1" width="67.14915190214255px" height="24.173694684771313px" viewBox="0 0 67.14915190214255 24.173694684771313"><g id="original-61356"><svg xmlns="http://www.w3.org/2000/svg" version="1.1" viewBox="0 0 385 139" xmlns:xlink="http://www.w3.org/1999/xlink" preserveAspectRatio="xMidYMid meet">
  <path d="M289.5 15.4c-29.8 13.9-33 15.6-33 17.7 0 3.6 3 3.5 11-.4 3.9-1.9 17.8-8.3 30.9-14.3l23.9-10.9 16.1 8.3c8.9 4.5 16.9 8.2 17.8 8.2 1.9 0 3.8-2.8 3.1-4.8-.3-.9 1.1-1.2 5.1-1.2h5.6v7.4c0 7.3 0 7.4 3.5 9.7l3.5 2.4V132h-16.2l.4-19 .3-19H327v38h-59.9c-53.1 0-60.1.2-61.5 1.6-1.2 1.2-1.3 2-.6 3.5 1 1.9 3.2 1.9 90.5 1.9H385V34l-4-2.6c-3.9-2.6-4-2.8-4-8.4 0-3.2-.3-7.2-.6-8.9-.6-2.9-1-3.1-4.8-3.1-2.2 0-7.1.3-10.8.7-6.4.5-6.8.7-6.8 3v2.4l-7.2-3.9c-4-2.2-11.1-6-15.8-8.5L322.5.2l-33 15.2zm68.5 99.1V132h-23v-9c0-8.3-.1-9-2-9-1.8 0-2-.7-2-8.5V97h27v17.5z" fill="rgba(0, 0, 0, 1)" stroke="none"/>
  <path d="M3.2 41.2C.1 44.3 2.6 54 6.5 54c1.9 0 4.5-2.8 4.5-4.8 0-1.3-.4-1.2-1.9.7C6 54 3.1 51.3 4 45c.1-.8.7-2.1 1.5-2.8 1-1.2 1.6-1 3.4.9 1.5 1.6 2.1 1.9 2.1.8 0-2.1-2-3.9-4.5-3.9-1.2 0-2.6.5-3.3 1.2z" fill="rgba(0, 0, 0, 1)" stroke="none"/>
  <path d="M14 41.9c-3.8 7.2 3 16.2 7.4 9.9C24.8 47 22.8 40 18 40c-1.9 0-3.3.7-4 1.9zm6.8 4.8c-.6 7.1-5.7 6.8-5.8-.3 0-3.9 1.7-5.6 4.2-4.3 1.4.8 1.8 1.9 1.6 4.6z" fill="rgba(0, 0, 0, 1)" stroke="none"/>
  <path d="M25 46.4c0 7.6 1.7 9.9 2.2 2.9l.3-4.8 2.5 4.7c1.3 2.7 2.8 4.8 3.2 4.8.4 0 .8-3.2.8-7 0-4-.4-7-1-7-.5 0-1 2.1-1 4.7l-.1 4.8-2.5-4.8C28.1 42.1 26.5 40 26 40c-.6 0-1 2.9-1 6.4z" fill="rgba(0, 0, 0, 1)" stroke="none"/>
  <path d="M37.7 40.6c-1.7 1.7-.6 5.3 2 6.6 3.3 1.6 4 3.6 1.7 4.5-1.1.4-2.2 0-3-1.2-1.3-1.8-1.4-1.8-1.4.2 0 4.1 6.3 4 7.6 0 .6-2.1-.5-3.4-5.2-6.3-1.5-1-1.6-1.5-.7-2.5 1-1 1.7-.9 3.4.7 2.1 1.9 2.1 1.9 1.8-.1-.4-2-4.7-3.3-6.2-1.9z" fill="rgba(0, 0, 0, 1)" stroke="none"/>
  <path d="M46 41c0 .5.7 1 1.5 1 1.1 0 1.5 1.3 1.5 5.4 0 3 .5 5.8 1 6.1.6.4 1-1.7 1-5.4 0-4.6.3-6.1 1.4-6.1.8 0 1.8-.5 2.1-1 .4-.6-1.2-1-3.9-1-2.5 0-4.6.4-4.6 1z" fill="rgba(0, 0, 0, 1)" stroke="none"/>
  <path d="M56 46.4c0 3.6.5 6.8 1 7.1.6.4 1-.7 1-2.4 0-4 2.4-4.1 4-.1 1.3 3 3 4 3 1.7 0-.7-.7-2.3-1.6-3.5-.8-1.2-1.1-2.2-.6-2.2 1.4 0 2.3-3 1.7-5.1-.5-1.4-1.6-1.9-4.6-1.9H56v6.4zm6.8-2.7c-.2 1-1.3 1.9-2.6 2.1-1.7.3-2.2-.2-2.2-1.7 0-1.6.6-2.1 2.6-2.1 1.9 0 2.5.5 2.2 1.7z" fill="rgba(0, 0, 0, 1)" stroke="none"/>
  <path d="M67 45.9c0 4 .5 6.3 1.5 7.1 2.1 1.7 6.1.4 6.9-2.2.9-3.7.7-10.8-.4-10.8-.5 0-1 2.1-1 4.7 0 5.6-1.1 7.8-3.4 7-1.2-.5-1.6-2-1.6-6.2 0-3-.4-5.5-1-5.5s-1 2.6-1 5.9z" fill="rgba(0, 0, 0, 1)" stroke="none"/>
  <path d="M79 41.9C76.6 46.4 79 54 82.9 54c2.3 0 4.1-1.9 4.1-4.4 0-2-.1-2-1.6.2-2.8 4.1-5.4 2.3-5.4-3.8 0-4.2 2.3-5.6 4.9-2.9 2.1 2.2 2.7 1.6 1.5-1.5-.9-2.3-6.1-2.1-7.4.3z" fill="rgba(0, 0, 0, 1)" stroke="none"/>
  <path d="M90.2 42.5c-1.6 3.5-1.5 6.6.4 9.3 2.6 3.7 7.5 2.2 7.3-2.2 0-2-.1-2-1.1.1-.6 1.3-1.6 2.3-2.3 2.3-3.5 0-4.8-6.6-1.8-9.5 1.6-1.6 1.8-1.6 3.6.6l1.9 2.4-.3-2.5c-.3-2-1.1-2.6-3.5-2.8-2.4-.2-3.3.2-4.2 2.3z" fill="rgba(0, 0, 0, 1)" stroke="none"/>
  <path d="M101 47.1c0 4.4.4 6.8 1 6.4.6-.3 1-3.5 1-7.1 0-3.6-.4-6.4-1-6.4s-1 3-1 7.1z" fill="rgba(0, 0, 0, 1)" stroke="none"/>
  <path d="M106 41.9c-2.4 4.6 0 12.1 3.9 12.1 2.7 0 5.1-3.3 5.1-6.9 0-4.8-1.6-7.1-5-7.1-1.9 0-3.3.7-4 1.9zm7 5.3c0 4.2-2 5.9-4.5 3.8-2.1-1.7-1.9-7.7.2-8.9 2.6-1.4 4.3.5 4.3 5.1z" fill="rgba(0, 0, 0, 1)" stroke="none"/>
  <path d="M118.2 47.2c.1 6.9.1 7.1.7 2.3l.7-5 2.4 4.7c1.3 2.7 2.8 4.8 3.2 4.8.4 0 .7-3.3.6-7.3-.1-6.8-.1-7-.7-2.2l-.7 5-2.4-4.8c-1.3-2.6-2.8-4.7-3.2-4.7-.4 0-.7 3.3-.6 7.2z" fill="rgba(0, 0, 0, 1)" stroke="none"/>
  <path d="M129.2 46.7l.3 6.8 3.8.3c2.1.2 3.7-.1 3.7-.7s-1.3-1.1-3-1.1c-2.5 0-3-.4-3-2.4 0-1.9.6-2.6 2.8-2.9l2.7-.4-2.7-.2c-3.8-.2-4.1-4.1-.4-4.1 1.4 0 2.8-.5 3.1-1 .4-.6-1-1-3.5-1h-4.1l.3 6.7z" fill="rgba(0, 0, 0, 1)" stroke="none"/>
  <path d="M139.7 40.6c-.4.4-.7 1.8-.7 3.1 0 1.8.8 2.7 3 3.4 3.2 1.2 4 3.6 1.5 4.6-.9.3-2.2-.2-3.1-1.3-1.4-1.9-1.5-1.9-1.2 0 .8 5 7 4.4 7.6-.8.3-2.2-.2-2.9-2.7-3.9-3.2-1.2-4-3-1.9-4.3.6-.4 1.8.2 2.5 1.2 1.4 1.9 1.5 1.9 1.1-.1-.3-2-4.6-3.3-6.1-1.9z" fill="rgba(0, 0, 0, 1)" stroke="none"/>
  <path d="M152 40.7c.1.5.7 1.9 1.5 3.3s1.4 3.9 1.5 5.7c0 1.7.5 3.5 1 3.8.6.4 1-.7 1-2.5 0-1.7.7-4.5 1.6-6.1.8-1.7 1.3-3.6 1.1-4.2-.2-.7-1.1.1-1.9 1.8l-1.6 3-1.3-2.8c-1.1-2.5-2.9-3.7-2.9-2z" fill="rgba(0, 0, 0, 1)" stroke="none"/>
  <path d="M166 47c0 4 .4 7 1 7s1-1.4 1-3c0-1.9.5-3 1.4-3 .7 0 1.9 1.3 2.6 3 .7 1.6 1.6 3 2.1 3 1.2 0 1.1-.7-.5-3.8-1.2-2.3-1.2-3 0-4.6 2.1-2.9.1-5.6-4.1-5.6H166v7zm6.5-3c0 .8-1 1.6-2.2 1.8-1.8.3-2.3-.2-2.3-1.8s.5-2.1 2.3-1.8c1.2.2 2.2 1 2.2 1.8z" fill="rgba(0, 0, 0, 1)" stroke="none"/>
  <path d="M177.2 46.7l.3 6.8 3.8.3c2.1.2 3.7-.1 3.7-.7s-1.3-1.1-3-1.1c-2.5 0-3-.4-3-2.4 0-1.9.6-2.6 2.8-2.9l2.7-.4-2.7-.2c-3.8-.2-4.1-4.1-.4-4.1 1.4 0 2.8-.5 3.1-1 .4-.6-1-1-3.5-1h-4.1l.3 6.7z" fill="rgba(0, 0, 0, 1)" stroke="none"/>
  <path d="M187 47c0 4 .4 7 1 7s1-1.5 1-3.4c0-2.8.4-3.5 2.3-3.9l2.2-.4-2.2-.2c-3.4-.2-3.2-4.1.2-4.1 1.4 0 2.5-.5 2.5-1 0-.6-1.6-1-3.5-1H187v7z" fill="rgba(0, 0, 0, 1)" stroke="none"/>
  <path d="M197 41.9c-3.8 7.2 3 16.2 7.4 9.9C207.8 47 205.8 40 201 40c-1.9 0-3.3.7-4 1.9zm7 4.5c0 3.7-2.1 6.2-4.5 5.2-1.8-.7-2.1-7.6-.3-9.4 2-2 4.8.4 4.8 4.2z" fill="rgba(0, 0, 0, 1)" stroke="none"/>
  <path d="M208 46.4c0 3.6.5 6.8 1 7.1.6.4 1-.7 1-2.4 0-4 2.4-4.1 4-.1.7 1.6 1.7 3 2.2 3 1 0 .1-3.9-1.3-5.4-.5-.6-.2-1.7.7-2.7 1-1.1 1.3-2.5.9-3.8-.5-1.7-1.5-2.1-4.6-2.1H208v6.4zm6.5-2.4c0 .8-1 1.6-2.2 1.8-1.8.3-2.3-.2-2.3-1.8s.5-2.1 2.3-1.8c1.2.2 2.2 1 2.2 1.8z" fill="rgba(0, 0, 0, 1)" stroke="none"/>
  <path d="M219 47.1c0 7.6 1.9 9 2.1 1.6l.1-4.2 1 4.7c1.2 5.6 2.4 6.1 3.3 1.5 1.4-6.9 2-7.3 2.6-1.7l.6 5.5.1-7.3c.2-5.7-.1-7.2-1.2-7.2-.9 0-1.8 1.6-2.4 4.2-.9 4.3-1.4 4-2.6-1.5-.4-1.5-1.3-2.7-2.1-2.7-1.2 0-1.5 1.5-1.5 7.1z" fill="rgba(0, 0, 0, 1)" stroke="none"/>
  <path d="M234 42.4c-2.9 7.6-3.6 14.5-1 9.7 1.4-2.8 4.8-2.7 5.9.1 1.7 4.7 1.7-.1-.1-6-2-6.6-3.3-7.7-4.8-3.8zm3 3.7c0 1.1-.7 1.9-1.6 1.9-1.1 0-1.4-.5-1-1.6.3-.9.6-2 .6-2.5 0-.6.5-.7 1-.4.6.3 1 1.5 1 2.6z" fill="rgba(0, 0, 0, 1)" stroke="none"/>
  <path d="M243.7 40.6c-1.8 1.8-.6 5.4 2.3 6.9 3.3 1.7 3.8 3.2 1.4 4.2-1 .4-2.2-.1-3-1.2-1.6-2.1-2.7-1.6-1.8.8 1.3 3.5 6.8 3.1 7.7-.4.6-2.1-1.1-4.3-4.9-6.5-1.5-1-1.6-1.5-.7-2.5 1-1 1.7-.9 3.4.7 2.1 1.9 2.1 1.9 1.8-.1-.4-2-4.7-3.3-6.2-1.9z" fill="rgba(0, 0, 0, 1)" stroke="none"/>
  <path d="M326 57v13h16.9l.3-13 .3-13H326v13zm15 0v11h-4.5c-4.5 0-4.5 0-4.5-3.6 0-2.7-.5-3.7-2-4.1-1.8-.5-2-1.4-2-7.4V46h13v11z" fill="rgba(0, 0, 0, 1)" stroke="none"/>
  <path d="M345 57v13h17.5V44H345v13zm15 0v11h-13V46h13v11z" fill="rgba(0, 0, 0, 1)" stroke="none"/>
  <path d="M171.9 68.5c-4 2.2-4.9 6.3-4.9 22 0 13.1.2 14.5 2.3 17.6 1.9 2.9 2.9 3.4 6.7 3.7 9.9.7 11.2-2.3 10.8-23.7-.3-14.7-.5-16.2-2.4-18.2-2.7-2.6-9.1-3.4-12.5-1.4zm6.6 21c0 11-.3 14.9-1.2 15.2-1 .4-1.3-3.1-1.3-15.2s.3-15.6 1.3-15.3c.9.4 1.2 4.3 1.2 15.3z" fill="rgba(0, 0, 0, 1)" stroke="none"/>
  <path d="M284.3 68c-3.5 1.4-4.5 4.6-4.1 12.3l.4 6.9 5.3 4.7c4.6 4.1 5.4 5.2 5.5 8.6.1 3-.3 4-1.6 4.3-1.5.3-1.8-.4-1.8-4.2V96h-8v4.6c0 4.8 1.3 8.1 3.9 10.1 1.7 1.3 8.8 1.7 11.6.7 4.1-1.6 5.9-12.1 3.1-18.8-.8-1.8-3.5-5.1-6-7.2-4.2-3.4-4.7-4.3-4.4-7.4.4-4.4 2.2-4.6 2.6-.3.3 3.1.6 3.3 4.3 3.3 3.7 0 3.9-.1 3.9-3.3 0-1.7-.3-4.2-.6-5.5-1.2-4.2-8.6-6.4-14.1-4.2z" fill="rgba(0, 0, 0, 1)" stroke="none"/>
  <path d="M0 90v22h9v-9.5c0-7.8.3-9.5 1.5-9.5s1.5 1.7 1.5 9.6v9.5l4.3-.3 4.2-.3.3-21.8L21 68h-9v8c0 6.4-.3 8-1.5 8S9 82.4 9 76v-8H0v22z" fill="rgba(0, 0, 0, 1)" stroke="none"/>
  <path d="M25 86.5c0 23.8.7 25.5 10.4 25.5 3.3 0 4.8-.6 6.7-2.6 2.3-2.5 2.4-3 2.7-22l.3-19.4H36v18.6c0 14.4-.3 18.5-1.2 18.2-1-.4-1.4-5.2-1.6-18.6L33 68h-8v18.5z" fill="rgba(0, 0, 0, 1)" stroke="none"/>
  <path d="M49 90v22h7V98.3c0-7.5.2-13.4.5-13.1.5.4 3.5 23 3.5 26 0 .5 1.1.8 2.5.8 2.7 0 2.7 0 4.6-16.5.6-5.5 1.3-10.2 1.5-10.4.2-.2.4 5.7.4 13.2V112h7V68H65.2l-.6 3.7c-.3 2.1-.8 6.5-1.2 9.8l-.8 6-.8-6.5c-1.9-14.2-1.2-13-7.3-13H49v22z" fill="rgba(0, 0, 0, 1)" stroke="none"/>
  <path d="M80.2 89.7l.3 21.8 8.5-.2c10.9-.2 12-1.3 12-11.9 0-6.2-.3-7.7-2.1-9.5-2-2-2-2.3-.5-3.1 1.2-.7 1.6-2.4 1.6-7.4 0-5.6-.4-6.8-2.5-8.9-2.1-2.2-3.3-2.5-10-2.5H80l.2 21.7zm11.6-9.4c.2 3.7 0 4.7-1.2 4.7S89 83.8 89 79.9c0-6.6 2.4-6.2 2.8.4zM92 98c0 4.7-.3 6-1.5 6s-1.5-1.3-1.5-6 .3-6 1.5-6 1.5 1.3 1.5 6z" fill="rgba(0, 0, 0, 1)" stroke="none"/>
  <path d="M105 90v22h15v-4.5c0-4.5 0-4.5-3.5-4.5H113v-5c0-4.9.1-5 3-5 2.8 0 3-.2 3-4s-.2-4-3.1-4-3-.1-2.7-4.3c.3-3.8.6-4.2 3.1-4.5 2.4-.3 2.7-.7 2.7-4.3V68h-14v22z" fill="rgba(0, 0, 0, 1)" stroke="none"/>
  <path d="M123 90v22h9v-10.1c0-7.6.3-10 1.3-9.7.8.3 1.3 3.5 1.5 10.1l.3 9.7h7.9v-9.5c0-8.2-.3-9.8-2-11.5l-2-2 2-2c3.5-3.5 2.1-15.8-2-18-1-.6-5-1-8.9-1H123v22zm11.5-10c0 2.6-.5 4.5-1.2 4.7-.9.3-1.3-1-1.3-4.7s.4-5 1.3-4.8c.7.3 1.2 2.2 1.2 4.8z" fill="rgba(0, 0, 0, 1)" stroke="none"/>
  <path d="M145 71.9c0 3.6.3 4 2.8 4.3l2.7.3.3 17.7.2 17.8h8l.2-17.8.3-17.7 2.8-.3c2.4-.3 2.7-.7 2.7-4.3V68h-20v3.9z" fill="rgba(0, 0, 0, 1)" stroke="none"/>
  <path d="M199 90.1v22l4.3-.3 4.2-.3.3-9.8c.2-7.2.6-9.7 1.5-9.4.8.2 1.3 3.6 1.5 10l.3 9.7h7.9v-9.5c0-8.3-.3-9.8-2.1-11.6-1.9-1.9-1.9-2.2-.5-3.2 3.5-2.6 3.2-14.1-.5-17.8-1.5-1.5-3.3-1.9-9.4-1.9H199v22.1zm11.6-12.7c.8 3.3.2 6.9-1.3 7.4-.9.2-1.3-1.1-1.3-4.7 0-5.3 1.5-6.9 2.6-2.7z" fill="rgba(0, 0, 0, 1)" stroke="none"/>
  <path d="M223 90v22h8V68h-8v22z" fill="rgba(0, 0, 0, 1)" stroke="none"/>
  <path d="M236 89.7l2.6 21.8 6.7.3c3.7.2 6.7-.1 6.7-.5s.9-9.1 2-19.3c2.8-25.7 2.9-24-2.4-24h-4.4l-.8 14.2c-.8 16.5-1.9 15.6-2.9-2.5l-.7-11.7h-9.4l2.6 21.7z" fill="rgba(0, 0, 0, 1)" stroke="none"/>
  <path d="M258.6 85.7c-1 9.8-2 19.7-2.3 22l-.6 4.3h9.3v-4c0-3.3.3-4 1.9-4 1.6 0 2 .8 2.3 3.7.3 3.7.4 3.8 4.6 4.1 5.1.4 4.9 2.3 2.2-21.3-2.9-24.9-1.9-22.5-9.3-22.5h-6.3l-1.8 17.7zm9.7 2c.5 7.6.4 8.3-1.3 8.3-1.7 0-1.8-.6-1.4-5.3.7-7 1.5-12 1.8-11.6.2.2.6 4.1.9 8.6z" fill="rgba(0, 0, 0, 1)" stroke="none"/>
</svg>
</g></svg></g></g>
<!-- /image 61356 -->
</defs><rect x="0" y="0" width="105" height="100" fill="rgba(255, 255, 255, 1)"></rect><use xlink:href="#transformed-61356" transform="translate(-105, -100)"></use><use xlink:href="#transformed-61356" transform="translate(0, -100)"></use><use xlink:href="#transformed-61356" transform="translate(105, -100)"></use><use xlink:href="#transformed-61356" transform="translate(-105, 0)"></use><use xlink:href="#transformed-61356" transform="translate(0, 0)"></use><use xlink:href="#transformed-61356" transform="translate(105, 0)"></use><use xlink:href="#transformed-61356" transform="translate(-105, 100)"></use><use xlink:href="#transformed-61356" transform="translate(0, 100)"></use><use xlink:href="#transformed-61356" transform="translate(105, 100)"></use></svg>